<mxfile host="app.diagrams.net" agent="Mozilla/5.0 (Macintosh; Intel Mac OS X 10_15_7) AppleWebKit/537.36 (KHTML, like Gecko) Chrome/131.0.0.0 Safari/537.36" version="24.8.3" pages="5">
  <diagram name="Problem" id="-ZFBoR_mJjAQblsTvXZA">
    <mxGraphModel dx="1306" dy="825" grid="1" gridSize="10" guides="1" tooltips="1" connect="1" arrows="1" fold="1" page="1" pageScale="1" pageWidth="1169" pageHeight="827" math="0" shadow="0">
      <root>
        <mxCell id="0" />
        <mxCell id="1" parent="0" />
        <mxCell id="3BvfbwcclzTJAuTbf-V6-2" value="Processor A" style="image;html=1;image=img/lib/clip_art/computers/Server_Tower_128x128.png" vertex="1" parent="1">
          <mxGeometry x="815" y="249" width="80" height="80" as="geometry" />
        </mxCell>
        <mxCell id="3BvfbwcclzTJAuTbf-V6-3" value="Processor B" style="image;html=1;image=img/lib/clip_art/computers/Server_Tower_128x128.png" vertex="1" parent="1">
          <mxGeometry x="815" y="369" width="80" height="80" as="geometry" />
        </mxCell>
        <mxCell id="3BvfbwcclzTJAuTbf-V6-4" value="Processor C" style="image;html=1;image=img/lib/clip_art/computers/Server_Tower_128x128.png" vertex="1" parent="1">
          <mxGeometry x="815" y="499" width="80" height="80" as="geometry" />
        </mxCell>
        <mxCell id="3BvfbwcclzTJAuTbf-V6-5" value="" style="endArrow=classic;html=1;rounded=0;exitX=1;exitY=0.5;exitDx=0;exitDy=0;entryX=0;entryY=0.5;entryDx=0;entryDy=0;flowAnimation=1;" edge="1" parent="1" source="3BvfbwcclzTJAuTbf-V6-9" target="3BvfbwcclzTJAuTbf-V6-2">
          <mxGeometry width="50" height="50" relative="1" as="geometry">
            <mxPoint x="505" y="409" as="sourcePoint" />
            <mxPoint x="515" y="349" as="targetPoint" />
          </mxGeometry>
        </mxCell>
        <mxCell id="3BvfbwcclzTJAuTbf-V6-6" value="" style="endArrow=classic;html=1;rounded=0;exitX=1;exitY=0.5;exitDx=0;exitDy=0;entryX=0;entryY=0.5;entryDx=0;entryDy=0;flowAnimation=1;" edge="1" parent="1" source="3BvfbwcclzTJAuTbf-V6-15" target="3BvfbwcclzTJAuTbf-V6-3">
          <mxGeometry width="50" height="50" relative="1" as="geometry">
            <mxPoint x="505" y="409" as="sourcePoint" />
            <mxPoint x="825" y="299" as="targetPoint" />
          </mxGeometry>
        </mxCell>
        <mxCell id="3BvfbwcclzTJAuTbf-V6-7" value="" style="endArrow=classic;html=1;rounded=0;exitX=1;exitY=0.5;exitDx=0;exitDy=0;entryX=0;entryY=0.5;entryDx=0;entryDy=0;flowAnimation=1;" edge="1" parent="1" source="3BvfbwcclzTJAuTbf-V6-9" target="3BvfbwcclzTJAuTbf-V6-4">
          <mxGeometry width="50" height="50" relative="1" as="geometry">
            <mxPoint x="505" y="409" as="sourcePoint" />
            <mxPoint x="825" y="419" as="targetPoint" />
          </mxGeometry>
        </mxCell>
        <mxCell id="3BvfbwcclzTJAuTbf-V6-10" style="edgeStyle=orthogonalEdgeStyle;rounded=0;orthogonalLoop=1;jettySize=auto;html=1;entryX=0;entryY=0.5;entryDx=0;entryDy=0;flowAnimation=1;" edge="1" parent="1" source="3BvfbwcclzTJAuTbf-V6-12" target="3BvfbwcclzTJAuTbf-V6-9">
          <mxGeometry relative="1" as="geometry" />
        </mxCell>
        <mxCell id="3BvfbwcclzTJAuTbf-V6-8" value="Frontend" style="image;html=1;image=img/lib/clip_art/computers/iMac_128x128.png" vertex="1" parent="1">
          <mxGeometry x="275" y="369" width="80" height="80" as="geometry" />
        </mxCell>
        <mxCell id="3BvfbwcclzTJAuTbf-V6-9" value="Backend Server" style="image;html=1;image=img/lib/clip_art/computers/Server_Tower_128x128.png" vertex="1" parent="1">
          <mxGeometry x="545" y="369" width="80" height="80" as="geometry" />
        </mxCell>
        <mxCell id="3BvfbwcclzTJAuTbf-V6-11" value="" style="edgeStyle=orthogonalEdgeStyle;rounded=0;orthogonalLoop=1;jettySize=auto;html=1;entryX=0;entryY=0.5;entryDx=0;entryDy=0;flowAnimation=1;" edge="1" parent="1" source="3BvfbwcclzTJAuTbf-V6-8" target="3BvfbwcclzTJAuTbf-V6-12">
          <mxGeometry relative="1" as="geometry">
            <mxPoint x="355" y="409" as="sourcePoint" />
            <mxPoint x="545" y="409" as="targetPoint" />
          </mxGeometry>
        </mxCell>
        <mxCell id="3BvfbwcclzTJAuTbf-V6-12" value="Message" style="shape=message;html=1;html=1;outlineConnect=0;labelPosition=center;verticalLabelPosition=bottom;align=center;verticalAlign=top;" vertex="1" parent="1">
          <mxGeometry x="425" y="389" width="60" height="40" as="geometry" />
        </mxCell>
        <mxCell id="3BvfbwcclzTJAuTbf-V6-13" value="" style="shape=message;html=1;html=1;outlineConnect=0;labelPosition=center;verticalLabelPosition=bottom;align=center;verticalAlign=top;" vertex="1" parent="1">
          <mxGeometry x="705" y="319" width="60" height="40" as="geometry" />
        </mxCell>
        <mxCell id="3BvfbwcclzTJAuTbf-V6-16" value="" style="endArrow=classic;html=1;rounded=0;exitX=1;exitY=0.5;exitDx=0;exitDy=0;entryX=0;entryY=0.5;entryDx=0;entryDy=0;flowAnimation=1;" edge="1" parent="1" source="3BvfbwcclzTJAuTbf-V6-9" target="3BvfbwcclzTJAuTbf-V6-15">
          <mxGeometry width="50" height="50" relative="1" as="geometry">
            <mxPoint x="625" y="409" as="sourcePoint" />
            <mxPoint x="815" y="409" as="targetPoint" />
          </mxGeometry>
        </mxCell>
        <mxCell id="3BvfbwcclzTJAuTbf-V6-15" value="" style="shape=message;html=1;html=1;outlineConnect=0;labelPosition=center;verticalLabelPosition=bottom;align=center;verticalAlign=top;" vertex="1" parent="1">
          <mxGeometry x="705" y="389" width="60" height="40" as="geometry" />
        </mxCell>
        <mxCell id="3BvfbwcclzTJAuTbf-V6-17" value="" style="shape=message;html=1;html=1;outlineConnect=0;labelPosition=center;verticalLabelPosition=bottom;align=center;verticalAlign=top;" vertex="1" parent="1">
          <mxGeometry x="706" y="466" width="60" height="40" as="geometry" />
        </mxCell>
      </root>
    </mxGraphModel>
  </diagram>
  <diagram id="oDhbysPCYZvNGMRujgwg" name="Solution-1">
    <mxGraphModel dx="1306" dy="825" grid="1" gridSize="10" guides="1" tooltips="1" connect="1" arrows="1" fold="1" page="1" pageScale="1" pageWidth="1169" pageHeight="827" math="0" shadow="0">
      <root>
        <mxCell id="0" />
        <mxCell id="1" parent="0" />
        <mxCell id="qAocysTCjoebV-vhzsty-1" value="Processor A" style="image;html=1;image=img/lib/clip_art/computers/Server_Tower_128x128.png" vertex="1" parent="1">
          <mxGeometry x="880" y="254" width="80" height="80" as="geometry" />
        </mxCell>
        <mxCell id="qAocysTCjoebV-vhzsty-2" value="Processor B" style="image;html=1;image=img/lib/clip_art/computers/Server_Tower_128x128.png" vertex="1" parent="1">
          <mxGeometry x="880" y="374" width="80" height="80" as="geometry" />
        </mxCell>
        <mxCell id="qAocysTCjoebV-vhzsty-3" value="Processor C" style="image;html=1;image=img/lib/clip_art/computers/Server_Tower_128x128.png" vertex="1" parent="1">
          <mxGeometry x="880" y="494" width="80" height="80" as="geometry" />
        </mxCell>
        <mxCell id="qAocysTCjoebV-vhzsty-4" value="" style="endArrow=classic;html=1;rounded=0;exitX=1;exitY=0.5;exitDx=0;exitDy=0;movable=1;resizable=1;rotatable=1;deletable=1;editable=1;locked=0;connectable=1;entryX=0;entryY=0.5;entryDx=0;entryDy=0;entryPerimeter=0;flowAnimation=1;" edge="1" parent="1" source="qAocysTCjoebV-vhzsty-9" target="qAocysTCjoebV-vhzsty-16">
          <mxGeometry width="50" height="50" relative="1" as="geometry">
            <mxPoint x="465" y="414" as="sourcePoint" />
            <mxPoint x="755" y="304" as="targetPoint" />
          </mxGeometry>
        </mxCell>
        <mxCell id="qAocysTCjoebV-vhzsty-5" value="" style="endArrow=classic;html=1;rounded=0;exitX=1;exitY=0.5;exitDx=0;exitDy=0;entryX=0;entryY=0.5;entryDx=0;entryDy=0;entryPerimeter=0;flowAnimation=1;" edge="1" parent="1" source="qAocysTCjoebV-vhzsty-14" target="qAocysTCjoebV-vhzsty-17">
          <mxGeometry width="50" height="50" relative="1" as="geometry">
            <mxPoint x="465" y="414" as="sourcePoint" />
            <mxPoint x="745" y="414" as="targetPoint" />
          </mxGeometry>
        </mxCell>
        <mxCell id="qAocysTCjoebV-vhzsty-6" value="" style="endArrow=classic;html=1;rounded=0;exitX=1;exitY=0.5;exitDx=0;exitDy=0;entryX=0;entryY=0.5;entryDx=0;entryDy=0;entryPerimeter=0;flowAnimation=1;" edge="1" parent="1" source="qAocysTCjoebV-vhzsty-9" target="qAocysTCjoebV-vhzsty-18">
          <mxGeometry width="50" height="50" relative="1" as="geometry">
            <mxPoint x="465" y="414" as="sourcePoint" />
            <mxPoint x="765" y="544" as="targetPoint" />
          </mxGeometry>
        </mxCell>
        <mxCell id="qAocysTCjoebV-vhzsty-7" style="edgeStyle=orthogonalEdgeStyle;rounded=0;orthogonalLoop=1;jettySize=auto;html=1;entryX=0;entryY=0.5;entryDx=0;entryDy=0;flowAnimation=1;" edge="1" parent="1" source="qAocysTCjoebV-vhzsty-11" target="qAocysTCjoebV-vhzsty-9">
          <mxGeometry relative="1" as="geometry" />
        </mxCell>
        <mxCell id="qAocysTCjoebV-vhzsty-8" value="Frontend" style="image;html=1;image=img/lib/clip_art/computers/iMac_128x128.png" vertex="1" parent="1">
          <mxGeometry x="235" y="374" width="80" height="80" as="geometry" />
        </mxCell>
        <mxCell id="qAocysTCjoebV-vhzsty-9" value="Backend Server" style="image;html=1;image=img/lib/clip_art/computers/Server_Tower_128x128.png" vertex="1" parent="1">
          <mxGeometry x="505" y="374" width="80" height="80" as="geometry" />
        </mxCell>
        <mxCell id="qAocysTCjoebV-vhzsty-10" value="" style="edgeStyle=orthogonalEdgeStyle;rounded=0;orthogonalLoop=1;jettySize=auto;html=1;entryX=0;entryY=0.5;entryDx=0;entryDy=0;flowAnimation=1;" edge="1" parent="1" source="qAocysTCjoebV-vhzsty-8" target="qAocysTCjoebV-vhzsty-11">
          <mxGeometry relative="1" as="geometry">
            <mxPoint x="315" y="414" as="sourcePoint" />
            <mxPoint x="505" y="414" as="targetPoint" />
          </mxGeometry>
        </mxCell>
        <mxCell id="qAocysTCjoebV-vhzsty-11" value="Message" style="shape=message;html=1;html=1;outlineConnect=0;labelPosition=center;verticalLabelPosition=bottom;align=center;verticalAlign=top;" vertex="1" parent="1">
          <mxGeometry x="385" y="394" width="60" height="40" as="geometry" />
        </mxCell>
        <mxCell id="qAocysTCjoebV-vhzsty-12" value="" style="shape=message;html=1;html=1;outlineConnect=0;labelPosition=center;verticalLabelPosition=bottom;align=center;verticalAlign=top;" vertex="1" parent="1">
          <mxGeometry x="665" y="324" width="60" height="40" as="geometry" />
        </mxCell>
        <mxCell id="qAocysTCjoebV-vhzsty-13" value="" style="endArrow=classic;html=1;rounded=0;exitX=1;exitY=0.5;exitDx=0;exitDy=0;entryX=0;entryY=0.5;entryDx=0;entryDy=0;flowAnimation=1;" edge="1" parent="1" source="qAocysTCjoebV-vhzsty-9" target="qAocysTCjoebV-vhzsty-14">
          <mxGeometry width="50" height="50" relative="1" as="geometry">
            <mxPoint x="585" y="414" as="sourcePoint" />
            <mxPoint x="775" y="414" as="targetPoint" />
          </mxGeometry>
        </mxCell>
        <mxCell id="qAocysTCjoebV-vhzsty-14" value="" style="shape=message;html=1;html=1;outlineConnect=0;labelPosition=center;verticalLabelPosition=bottom;align=center;verticalAlign=top;" vertex="1" parent="1">
          <mxGeometry x="665" y="394" width="60" height="40" as="geometry" />
        </mxCell>
        <mxCell id="qAocysTCjoebV-vhzsty-15" value="" style="shape=message;html=1;html=1;outlineConnect=0;labelPosition=center;verticalLabelPosition=bottom;align=center;verticalAlign=top;" vertex="1" parent="1">
          <mxGeometry x="666" y="462" width="60" height="40" as="geometry" />
        </mxCell>
        <mxCell id="qAocysTCjoebV-vhzsty-20" value="" style="edgeStyle=orthogonalEdgeStyle;rounded=0;orthogonalLoop=1;jettySize=auto;html=1;flowAnimation=1;" edge="1" parent="1" source="qAocysTCjoebV-vhzsty-16" target="qAocysTCjoebV-vhzsty-1">
          <mxGeometry relative="1" as="geometry" />
        </mxCell>
        <mxCell id="qAocysTCjoebV-vhzsty-16" value="API" style="sketch=0;points=[[0,0,0],[0.25,0,0],[0.5,0,0],[0.75,0,0],[1,0,0],[0,1,0],[0.25,1,0],[0.5,1,0],[0.75,1,0],[1,1,0],[0,0.25,0],[0,0.5,0],[0,0.75,0],[1,0.25,0],[1,0.5,0],[1,0.75,0]];outlineConnect=0;fontColor=#232F3E;fillColor=#E7157B;strokeColor=#ffffff;dashed=0;verticalLabelPosition=bottom;verticalAlign=top;align=center;html=1;fontSize=12;fontStyle=0;aspect=fixed;shape=mxgraph.aws4.resourceIcon;resIcon=mxgraph.aws4.api_gateway;" vertex="1" parent="1">
          <mxGeometry x="785" y="269" width="50" height="50" as="geometry" />
        </mxCell>
        <mxCell id="qAocysTCjoebV-vhzsty-21" value="" style="edgeStyle=orthogonalEdgeStyle;rounded=0;orthogonalLoop=1;jettySize=auto;html=1;flowAnimation=1;" edge="1" parent="1" source="qAocysTCjoebV-vhzsty-17" target="qAocysTCjoebV-vhzsty-2">
          <mxGeometry relative="1" as="geometry" />
        </mxCell>
        <mxCell id="qAocysTCjoebV-vhzsty-17" value="API" style="sketch=0;points=[[0,0,0],[0.25,0,0],[0.5,0,0],[0.75,0,0],[1,0,0],[0,1,0],[0.25,1,0],[0.5,1,0],[0.75,1,0],[1,1,0],[0,0.25,0],[0,0.5,0],[0,0.75,0],[1,0.25,0],[1,0.5,0],[1,0.75,0]];outlineConnect=0;fontColor=#232F3E;fillColor=#E7157B;strokeColor=#ffffff;dashed=0;verticalLabelPosition=bottom;verticalAlign=top;align=center;html=1;fontSize=12;fontStyle=0;aspect=fixed;shape=mxgraph.aws4.resourceIcon;resIcon=mxgraph.aws4.api_gateway;" vertex="1" parent="1">
          <mxGeometry x="785" y="389" width="50" height="50" as="geometry" />
        </mxCell>
        <mxCell id="qAocysTCjoebV-vhzsty-22" value="" style="edgeStyle=orthogonalEdgeStyle;rounded=0;orthogonalLoop=1;jettySize=auto;html=1;flowAnimation=1;" edge="1" parent="1" source="qAocysTCjoebV-vhzsty-18" target="qAocysTCjoebV-vhzsty-3">
          <mxGeometry relative="1" as="geometry" />
        </mxCell>
        <mxCell id="qAocysTCjoebV-vhzsty-18" value="API" style="sketch=0;points=[[0,0,0],[0.25,0,0],[0.5,0,0],[0.75,0,0],[1,0,0],[0,1,0],[0.25,1,0],[0.5,1,0],[0.75,1,0],[1,1,0],[0,0.25,0],[0,0.5,0],[0,0.75,0],[1,0.25,0],[1,0.5,0],[1,0.75,0]];outlineConnect=0;fontColor=#232F3E;fillColor=#E7157B;strokeColor=#ffffff;dashed=0;verticalLabelPosition=bottom;verticalAlign=top;align=center;html=1;fontSize=12;fontStyle=0;aspect=fixed;shape=mxgraph.aws4.resourceIcon;resIcon=mxgraph.aws4.api_gateway;" vertex="1" parent="1">
          <mxGeometry x="785" y="509" width="50" height="50" as="geometry" />
        </mxCell>
      </root>
    </mxGraphModel>
  </diagram>
  <diagram name="Solution-2" id="c6oVn1_w7_CIrzwYrx3Y">
    <mxGraphModel dx="1306" dy="825" grid="1" gridSize="10" guides="1" tooltips="1" connect="1" arrows="1" fold="1" page="1" pageScale="1" pageWidth="1169" pageHeight="827" math="0" shadow="0">
      <root>
        <mxCell id="NSvV2rvQrZmsVv0Js7HL-0" />
        <mxCell id="NSvV2rvQrZmsVv0Js7HL-1" parent="NSvV2rvQrZmsVv0Js7HL-0" />
        <mxCell id="NSvV2rvQrZmsVv0Js7HL-2" value="Processor A" style="image;html=1;image=img/lib/clip_art/computers/Server_Tower_128x128.png" vertex="1" parent="NSvV2rvQrZmsVv0Js7HL-1">
          <mxGeometry x="880" y="254" width="80" height="80" as="geometry" />
        </mxCell>
        <mxCell id="NSvV2rvQrZmsVv0Js7HL-3" value="Processor B" style="image;html=1;image=img/lib/clip_art/computers/Server_Tower_128x128.png" vertex="1" parent="NSvV2rvQrZmsVv0Js7HL-1">
          <mxGeometry x="880" y="374" width="80" height="80" as="geometry" />
        </mxCell>
        <mxCell id="NSvV2rvQrZmsVv0Js7HL-4" value="Processor C" style="image;html=1;image=img/lib/clip_art/computers/Server_Tower_128x128.png" vertex="1" parent="NSvV2rvQrZmsVv0Js7HL-1">
          <mxGeometry x="880" y="494" width="80" height="80" as="geometry" />
        </mxCell>
        <mxCell id="NSvV2rvQrZmsVv0Js7HL-5" value="" style="endArrow=classic;html=1;rounded=0;movable=1;resizable=1;rotatable=1;deletable=1;editable=1;locked=0;connectable=1;entryX=0;entryY=0.5;entryDx=0;entryDy=0;entryPerimeter=0;flowAnimation=1;" edge="1" parent="NSvV2rvQrZmsVv0Js7HL-1" target="NSvV2rvQrZmsVv0Js7HL-18">
          <mxGeometry width="50" height="50" relative="1" as="geometry">
            <mxPoint x="600" y="410" as="sourcePoint" />
            <mxPoint x="755" y="304" as="targetPoint" />
          </mxGeometry>
        </mxCell>
        <mxCell id="NSvV2rvQrZmsVv0Js7HL-6" value="" style="endArrow=classic;html=1;rounded=0;exitX=1;exitY=0.5;exitDx=0;exitDy=0;entryX=0;entryY=0.5;entryDx=0;entryDy=0;entryPerimeter=0;flowAnimation=1;" edge="1" parent="NSvV2rvQrZmsVv0Js7HL-1" source="NSvV2rvQrZmsVv0Js7HL-15" target="NSvV2rvQrZmsVv0Js7HL-20">
          <mxGeometry width="50" height="50" relative="1" as="geometry">
            <mxPoint x="465" y="414" as="sourcePoint" />
            <mxPoint x="745" y="414" as="targetPoint" />
          </mxGeometry>
        </mxCell>
        <mxCell id="NSvV2rvQrZmsVv0Js7HL-7" value="" style="endArrow=classic;html=1;rounded=0;entryX=0;entryY=0.5;entryDx=0;entryDy=0;entryPerimeter=0;flowAnimation=1;" edge="1" parent="NSvV2rvQrZmsVv0Js7HL-1" target="NSvV2rvQrZmsVv0Js7HL-22">
          <mxGeometry width="50" height="50" relative="1" as="geometry">
            <mxPoint x="600" y="420" as="sourcePoint" />
            <mxPoint x="765" y="544" as="targetPoint" />
          </mxGeometry>
        </mxCell>
        <mxCell id="NSvV2rvQrZmsVv0Js7HL-8" style="edgeStyle=orthogonalEdgeStyle;rounded=0;orthogonalLoop=1;jettySize=auto;html=1;entryX=0;entryY=0.5;entryDx=0;entryDy=0;flowAnimation=1;" edge="1" parent="NSvV2rvQrZmsVv0Js7HL-1" source="NSvV2rvQrZmsVv0Js7HL-12" target="NSvV2rvQrZmsVv0Js7HL-10">
          <mxGeometry relative="1" as="geometry" />
        </mxCell>
        <mxCell id="NSvV2rvQrZmsVv0Js7HL-9" value="Frontend" style="image;html=1;image=img/lib/clip_art/computers/iMac_128x128.png" vertex="1" parent="NSvV2rvQrZmsVv0Js7HL-1">
          <mxGeometry x="120" y="374" width="80" height="80" as="geometry" />
        </mxCell>
        <mxCell id="cFzlCh_o4ObDk82phY2t-1" value="" style="edgeStyle=orthogonalEdgeStyle;rounded=0;orthogonalLoop=1;jettySize=auto;html=1;flowAnimation=1;" edge="1" parent="NSvV2rvQrZmsVv0Js7HL-1" source="NSvV2rvQrZmsVv0Js7HL-10" target="cFzlCh_o4ObDk82phY2t-0">
          <mxGeometry relative="1" as="geometry" />
        </mxCell>
        <mxCell id="NSvV2rvQrZmsVv0Js7HL-10" value="Backend Server" style="image;html=1;image=img/lib/clip_art/computers/Server_Tower_128x128.png" vertex="1" parent="NSvV2rvQrZmsVv0Js7HL-1">
          <mxGeometry x="400" y="374" width="80" height="80" as="geometry" />
        </mxCell>
        <mxCell id="NSvV2rvQrZmsVv0Js7HL-11" value="" style="edgeStyle=orthogonalEdgeStyle;rounded=0;orthogonalLoop=1;jettySize=auto;html=1;entryX=0;entryY=0.5;entryDx=0;entryDy=0;flowAnimation=1;" edge="1" parent="NSvV2rvQrZmsVv0Js7HL-1" source="NSvV2rvQrZmsVv0Js7HL-9" target="NSvV2rvQrZmsVv0Js7HL-12">
          <mxGeometry relative="1" as="geometry">
            <mxPoint x="200" y="414" as="sourcePoint" />
            <mxPoint x="390" y="414" as="targetPoint" />
          </mxGeometry>
        </mxCell>
        <mxCell id="NSvV2rvQrZmsVv0Js7HL-12" value="Message" style="shape=message;html=1;html=1;outlineConnect=0;labelPosition=center;verticalLabelPosition=bottom;align=center;verticalAlign=top;" vertex="1" parent="NSvV2rvQrZmsVv0Js7HL-1">
          <mxGeometry x="270" y="394" width="60" height="40" as="geometry" />
        </mxCell>
        <mxCell id="NSvV2rvQrZmsVv0Js7HL-13" value="" style="shape=message;html=1;html=1;outlineConnect=0;labelPosition=center;verticalLabelPosition=bottom;align=center;verticalAlign=top;" vertex="1" parent="NSvV2rvQrZmsVv0Js7HL-1">
          <mxGeometry x="665" y="324" width="60" height="40" as="geometry" />
        </mxCell>
        <mxCell id="NSvV2rvQrZmsVv0Js7HL-14" value="" style="endArrow=classic;html=1;rounded=0;entryX=0;entryY=0.5;entryDx=0;entryDy=0;flowAnimation=1;" edge="1" parent="NSvV2rvQrZmsVv0Js7HL-1" target="NSvV2rvQrZmsVv0Js7HL-15">
          <mxGeometry width="50" height="50" relative="1" as="geometry">
            <mxPoint x="600" y="414" as="sourcePoint" />
            <mxPoint x="775" y="414" as="targetPoint" />
          </mxGeometry>
        </mxCell>
        <mxCell id="NSvV2rvQrZmsVv0Js7HL-15" value="" style="shape=message;html=1;html=1;outlineConnect=0;labelPosition=center;verticalLabelPosition=bottom;align=center;verticalAlign=top;" vertex="1" parent="NSvV2rvQrZmsVv0Js7HL-1">
          <mxGeometry x="665" y="394" width="60" height="40" as="geometry" />
        </mxCell>
        <mxCell id="NSvV2rvQrZmsVv0Js7HL-16" value="" style="shape=message;html=1;html=1;outlineConnect=0;labelPosition=center;verticalLabelPosition=bottom;align=center;verticalAlign=top;" vertex="1" parent="NSvV2rvQrZmsVv0Js7HL-1">
          <mxGeometry x="666" y="462" width="60" height="40" as="geometry" />
        </mxCell>
        <mxCell id="NSvV2rvQrZmsVv0Js7HL-17" value="" style="edgeStyle=orthogonalEdgeStyle;rounded=0;orthogonalLoop=1;jettySize=auto;html=1;flowAnimation=1;" edge="1" parent="NSvV2rvQrZmsVv0Js7HL-1" source="NSvV2rvQrZmsVv0Js7HL-18" target="NSvV2rvQrZmsVv0Js7HL-2">
          <mxGeometry relative="1" as="geometry" />
        </mxCell>
        <mxCell id="NSvV2rvQrZmsVv0Js7HL-18" value="API" style="sketch=0;points=[[0,0,0],[0.25,0,0],[0.5,0,0],[0.75,0,0],[1,0,0],[0,1,0],[0.25,1,0],[0.5,1,0],[0.75,1,0],[1,1,0],[0,0.25,0],[0,0.5,0],[0,0.75,0],[1,0.25,0],[1,0.5,0],[1,0.75,0]];outlineConnect=0;fontColor=#232F3E;fillColor=#E7157B;strokeColor=#ffffff;dashed=0;verticalLabelPosition=bottom;verticalAlign=top;align=center;html=1;fontSize=12;fontStyle=0;aspect=fixed;shape=mxgraph.aws4.resourceIcon;resIcon=mxgraph.aws4.api_gateway;" vertex="1" parent="NSvV2rvQrZmsVv0Js7HL-1">
          <mxGeometry x="785" y="269" width="50" height="50" as="geometry" />
        </mxCell>
        <mxCell id="NSvV2rvQrZmsVv0Js7HL-19" value="" style="edgeStyle=orthogonalEdgeStyle;rounded=0;orthogonalLoop=1;jettySize=auto;html=1;flowAnimation=1;" edge="1" parent="NSvV2rvQrZmsVv0Js7HL-1" source="NSvV2rvQrZmsVv0Js7HL-20" target="NSvV2rvQrZmsVv0Js7HL-3">
          <mxGeometry relative="1" as="geometry" />
        </mxCell>
        <mxCell id="NSvV2rvQrZmsVv0Js7HL-20" value="API" style="sketch=0;points=[[0,0,0],[0.25,0,0],[0.5,0,0],[0.75,0,0],[1,0,0],[0,1,0],[0.25,1,0],[0.5,1,0],[0.75,1,0],[1,1,0],[0,0.25,0],[0,0.5,0],[0,0.75,0],[1,0.25,0],[1,0.5,0],[1,0.75,0]];outlineConnect=0;fontColor=#232F3E;fillColor=#E7157B;strokeColor=#ffffff;dashed=0;verticalLabelPosition=bottom;verticalAlign=top;align=center;html=1;fontSize=12;fontStyle=0;aspect=fixed;shape=mxgraph.aws4.resourceIcon;resIcon=mxgraph.aws4.api_gateway;" vertex="1" parent="NSvV2rvQrZmsVv0Js7HL-1">
          <mxGeometry x="785" y="389" width="50" height="50" as="geometry" />
        </mxCell>
        <mxCell id="NSvV2rvQrZmsVv0Js7HL-21" value="" style="edgeStyle=orthogonalEdgeStyle;rounded=0;orthogonalLoop=1;jettySize=auto;html=1;flowAnimation=1;" edge="1" parent="NSvV2rvQrZmsVv0Js7HL-1" source="NSvV2rvQrZmsVv0Js7HL-22" target="NSvV2rvQrZmsVv0Js7HL-4">
          <mxGeometry relative="1" as="geometry" />
        </mxCell>
        <mxCell id="NSvV2rvQrZmsVv0Js7HL-22" value="API" style="sketch=0;points=[[0,0,0],[0.25,0,0],[0.5,0,0],[0.75,0,0],[1,0,0],[0,1,0],[0.25,1,0],[0.5,1,0],[0.75,1,0],[1,1,0],[0,0.25,0],[0,0.5,0],[0,0.75,0],[1,0.25,0],[1,0.5,0],[1,0.75,0]];outlineConnect=0;fontColor=#232F3E;fillColor=#E7157B;strokeColor=#ffffff;dashed=0;verticalLabelPosition=bottom;verticalAlign=top;align=center;html=1;fontSize=12;fontStyle=0;aspect=fixed;shape=mxgraph.aws4.resourceIcon;resIcon=mxgraph.aws4.api_gateway;" vertex="1" parent="NSvV2rvQrZmsVv0Js7HL-1">
          <mxGeometry x="785" y="509" width="50" height="50" as="geometry" />
        </mxCell>
        <mxCell id="cFzlCh_o4ObDk82phY2t-0" value="SNS" style="sketch=0;points=[[0,0,0],[0.25,0,0],[0.5,0,0],[0.75,0,0],[1,0,0],[0,1,0],[0.25,1,0],[0.5,1,0],[0.75,1,0],[1,1,0],[0,0.25,0],[0,0.5,0],[0,0.75,0],[1,0.25,0],[1,0.5,0],[1,0.75,0]];outlineConnect=0;fontColor=#232F3E;fillColor=#E7157B;strokeColor=#ffffff;dashed=0;verticalLabelPosition=bottom;verticalAlign=top;align=center;html=1;fontSize=12;fontStyle=0;aspect=fixed;shape=mxgraph.aws4.resourceIcon;resIcon=mxgraph.aws4.sns;" vertex="1" parent="NSvV2rvQrZmsVv0Js7HL-1">
          <mxGeometry x="550" y="389" width="50" height="50" as="geometry" />
        </mxCell>
      </root>
    </mxGraphModel>
  </diagram>
  <diagram name="Solution-3" id="pKhJ9fI2UfgJ9-txnqdF">
    <mxGraphModel dx="1306" dy="825" grid="1" gridSize="10" guides="1" tooltips="1" connect="1" arrows="1" fold="1" page="1" pageScale="1" pageWidth="1169" pageHeight="827" math="0" shadow="0">
      <root>
        <mxCell id="C56o7w2l9w4_Cjoz_A8b-0" />
        <mxCell id="C56o7w2l9w4_Cjoz_A8b-1" parent="C56o7w2l9w4_Cjoz_A8b-0" />
        <mxCell id="C56o7w2l9w4_Cjoz_A8b-2" value="Processor A" style="image;html=1;image=img/lib/clip_art/computers/Server_Tower_128x128.png" vertex="1" parent="C56o7w2l9w4_Cjoz_A8b-1">
          <mxGeometry x="880" y="254" width="80" height="80" as="geometry" />
        </mxCell>
        <mxCell id="C56o7w2l9w4_Cjoz_A8b-3" value="Processor B" style="image;html=1;image=img/lib/clip_art/computers/Server_Tower_128x128.png" vertex="1" parent="C56o7w2l9w4_Cjoz_A8b-1">
          <mxGeometry x="880" y="374" width="80" height="80" as="geometry" />
        </mxCell>
        <mxCell id="C56o7w2l9w4_Cjoz_A8b-4" value="Processor C" style="image;html=1;image=img/lib/clip_art/computers/Server_Tower_128x128.png" vertex="1" parent="C56o7w2l9w4_Cjoz_A8b-1">
          <mxGeometry x="880" y="494" width="80" height="80" as="geometry" />
        </mxCell>
        <mxCell id="C56o7w2l9w4_Cjoz_A8b-5" value="" style="endArrow=classic;html=1;rounded=0;movable=1;resizable=1;rotatable=1;deletable=1;editable=1;locked=0;connectable=1;entryX=0;entryY=0.5;entryDx=0;entryDy=0;entryPerimeter=0;flowAnimation=1;" edge="1" parent="C56o7w2l9w4_Cjoz_A8b-1">
          <mxGeometry width="50" height="50" relative="1" as="geometry">
            <mxPoint x="600" y="410" as="sourcePoint" />
            <mxPoint x="785" y="294" as="targetPoint" />
          </mxGeometry>
        </mxCell>
        <mxCell id="C56o7w2l9w4_Cjoz_A8b-6" value="" style="endArrow=classic;html=1;rounded=0;exitX=1;exitY=0.5;exitDx=0;exitDy=0;entryX=0;entryY=0.5;entryDx=0;entryDy=0;entryPerimeter=0;flowAnimation=1;" edge="1" parent="C56o7w2l9w4_Cjoz_A8b-1" source="C56o7w2l9w4_Cjoz_A8b-16">
          <mxGeometry width="50" height="50" relative="1" as="geometry">
            <mxPoint x="465" y="414" as="sourcePoint" />
            <mxPoint x="785" y="414" as="targetPoint" />
          </mxGeometry>
        </mxCell>
        <mxCell id="C56o7w2l9w4_Cjoz_A8b-7" value="" style="endArrow=classic;html=1;rounded=0;entryX=0;entryY=0.5;entryDx=0;entryDy=0;entryPerimeter=0;flowAnimation=1;" edge="1" parent="C56o7w2l9w4_Cjoz_A8b-1">
          <mxGeometry width="50" height="50" relative="1" as="geometry">
            <mxPoint x="600" y="420" as="sourcePoint" />
            <mxPoint x="785" y="534" as="targetPoint" />
          </mxGeometry>
        </mxCell>
        <mxCell id="C56o7w2l9w4_Cjoz_A8b-8" style="edgeStyle=orthogonalEdgeStyle;rounded=0;orthogonalLoop=1;jettySize=auto;html=1;entryX=0;entryY=0.5;entryDx=0;entryDy=0;flowAnimation=1;" edge="1" parent="C56o7w2l9w4_Cjoz_A8b-1" source="C56o7w2l9w4_Cjoz_A8b-13" target="C56o7w2l9w4_Cjoz_A8b-11">
          <mxGeometry relative="1" as="geometry" />
        </mxCell>
        <mxCell id="C56o7w2l9w4_Cjoz_A8b-9" value="Frontend" style="image;html=1;image=img/lib/clip_art/computers/iMac_128x128.png" vertex="1" parent="C56o7w2l9w4_Cjoz_A8b-1">
          <mxGeometry x="120" y="374" width="80" height="80" as="geometry" />
        </mxCell>
        <mxCell id="C56o7w2l9w4_Cjoz_A8b-10" value="" style="edgeStyle=orthogonalEdgeStyle;rounded=0;orthogonalLoop=1;jettySize=auto;html=1;flowAnimation=1;" edge="1" parent="C56o7w2l9w4_Cjoz_A8b-1" source="C56o7w2l9w4_Cjoz_A8b-11" target="C56o7w2l9w4_Cjoz_A8b-24">
          <mxGeometry relative="1" as="geometry" />
        </mxCell>
        <mxCell id="C56o7w2l9w4_Cjoz_A8b-11" value="Backend Server" style="image;html=1;image=img/lib/clip_art/computers/Server_Tower_128x128.png" vertex="1" parent="C56o7w2l9w4_Cjoz_A8b-1">
          <mxGeometry x="400" y="374" width="80" height="80" as="geometry" />
        </mxCell>
        <mxCell id="C56o7w2l9w4_Cjoz_A8b-12" value="" style="edgeStyle=orthogonalEdgeStyle;rounded=0;orthogonalLoop=1;jettySize=auto;html=1;entryX=0;entryY=0.5;entryDx=0;entryDy=0;flowAnimation=1;" edge="1" parent="C56o7w2l9w4_Cjoz_A8b-1" source="C56o7w2l9w4_Cjoz_A8b-9" target="C56o7w2l9w4_Cjoz_A8b-13">
          <mxGeometry relative="1" as="geometry">
            <mxPoint x="200" y="414" as="sourcePoint" />
            <mxPoint x="390" y="414" as="targetPoint" />
          </mxGeometry>
        </mxCell>
        <mxCell id="C56o7w2l9w4_Cjoz_A8b-13" value="Message" style="shape=message;html=1;html=1;outlineConnect=0;labelPosition=center;verticalLabelPosition=bottom;align=center;verticalAlign=top;" vertex="1" parent="C56o7w2l9w4_Cjoz_A8b-1">
          <mxGeometry x="270" y="394" width="60" height="40" as="geometry" />
        </mxCell>
        <mxCell id="C56o7w2l9w4_Cjoz_A8b-14" value="" style="shape=message;html=1;html=1;outlineConnect=0;labelPosition=center;verticalLabelPosition=bottom;align=center;verticalAlign=top;" vertex="1" parent="C56o7w2l9w4_Cjoz_A8b-1">
          <mxGeometry x="665" y="324" width="60" height="40" as="geometry" />
        </mxCell>
        <mxCell id="C56o7w2l9w4_Cjoz_A8b-15" value="" style="endArrow=classic;html=1;rounded=0;entryX=0;entryY=0.5;entryDx=0;entryDy=0;flowAnimation=1;" edge="1" parent="C56o7w2l9w4_Cjoz_A8b-1" target="C56o7w2l9w4_Cjoz_A8b-16">
          <mxGeometry width="50" height="50" relative="1" as="geometry">
            <mxPoint x="600" y="414" as="sourcePoint" />
            <mxPoint x="775" y="414" as="targetPoint" />
          </mxGeometry>
        </mxCell>
        <mxCell id="C56o7w2l9w4_Cjoz_A8b-16" value="" style="shape=message;html=1;html=1;outlineConnect=0;labelPosition=center;verticalLabelPosition=bottom;align=center;verticalAlign=top;" vertex="1" parent="C56o7w2l9w4_Cjoz_A8b-1">
          <mxGeometry x="665" y="394" width="60" height="40" as="geometry" />
        </mxCell>
        <mxCell id="C56o7w2l9w4_Cjoz_A8b-17" value="" style="shape=message;html=1;html=1;outlineConnect=0;labelPosition=center;verticalLabelPosition=bottom;align=center;verticalAlign=top;" vertex="1" parent="C56o7w2l9w4_Cjoz_A8b-1">
          <mxGeometry x="666" y="462" width="60" height="40" as="geometry" />
        </mxCell>
        <mxCell id="C56o7w2l9w4_Cjoz_A8b-20" value="" style="edgeStyle=orthogonalEdgeStyle;rounded=0;orthogonalLoop=1;jettySize=auto;html=1;flowAnimation=1;" edge="1" parent="C56o7w2l9w4_Cjoz_A8b-1" target="C56o7w2l9w4_Cjoz_A8b-3">
          <mxGeometry relative="1" as="geometry">
            <mxPoint x="835" y="414" as="sourcePoint" />
          </mxGeometry>
        </mxCell>
        <mxCell id="C56o7w2l9w4_Cjoz_A8b-22" value="" style="edgeStyle=orthogonalEdgeStyle;rounded=0;orthogonalLoop=1;jettySize=auto;html=1;flowAnimation=1;" edge="1" parent="C56o7w2l9w4_Cjoz_A8b-1" target="C56o7w2l9w4_Cjoz_A8b-4">
          <mxGeometry relative="1" as="geometry">
            <mxPoint x="835" y="534" as="sourcePoint" />
          </mxGeometry>
        </mxCell>
        <mxCell id="C56o7w2l9w4_Cjoz_A8b-24" value="SNS" style="sketch=0;points=[[0,0,0],[0.25,0,0],[0.5,0,0],[0.75,0,0],[1,0,0],[0,1,0],[0.25,1,0],[0.5,1,0],[0.75,1,0],[1,1,0],[0,0.25,0],[0,0.5,0],[0,0.75,0],[1,0.25,0],[1,0.5,0],[1,0.75,0]];outlineConnect=0;fontColor=#232F3E;fillColor=#E7157B;strokeColor=#ffffff;dashed=0;verticalLabelPosition=bottom;verticalAlign=top;align=center;html=1;fontSize=12;fontStyle=0;aspect=fixed;shape=mxgraph.aws4.resourceIcon;resIcon=mxgraph.aws4.sns;" vertex="1" parent="C56o7w2l9w4_Cjoz_A8b-1">
          <mxGeometry x="550" y="389" width="50" height="50" as="geometry" />
        </mxCell>
        <mxCell id="AtHkYgv6ObbaxClxxJdl-3" value="" style="edgeStyle=orthogonalEdgeStyle;rounded=0;orthogonalLoop=1;jettySize=auto;html=1;flowAnimation=1;" edge="1" parent="C56o7w2l9w4_Cjoz_A8b-1" source="AtHkYgv6ObbaxClxxJdl-0" target="C56o7w2l9w4_Cjoz_A8b-2">
          <mxGeometry relative="1" as="geometry" />
        </mxCell>
        <mxCell id="AtHkYgv6ObbaxClxxJdl-0" value="Queue" style="sketch=0;points=[[0,0,0],[0.25,0,0],[0.5,0,0],[0.75,0,0],[1,0,0],[0,1,0],[0.25,1,0],[0.5,1,0],[0.75,1,0],[1,1,0],[0,0.25,0],[0,0.5,0],[0,0.75,0],[1,0.25,0],[1,0.5,0],[1,0.75,0]];outlineConnect=0;fontColor=#232F3E;fillColor=#E7157B;strokeColor=#ffffff;dashed=0;verticalLabelPosition=bottom;verticalAlign=top;align=center;html=1;fontSize=12;fontStyle=0;aspect=fixed;shape=mxgraph.aws4.resourceIcon;resIcon=mxgraph.aws4.sqs;" vertex="1" parent="C56o7w2l9w4_Cjoz_A8b-1">
          <mxGeometry x="785" y="269" width="50" height="50" as="geometry" />
        </mxCell>
        <mxCell id="AtHkYgv6ObbaxClxxJdl-1" value="Queue" style="sketch=0;points=[[0,0,0],[0.25,0,0],[0.5,0,0],[0.75,0,0],[1,0,0],[0,1,0],[0.25,1,0],[0.5,1,0],[0.75,1,0],[1,1,0],[0,0.25,0],[0,0.5,0],[0,0.75,0],[1,0.25,0],[1,0.5,0],[1,0.75,0]];outlineConnect=0;fontColor=#232F3E;fillColor=#E7157B;strokeColor=#ffffff;dashed=0;verticalLabelPosition=bottom;verticalAlign=top;align=center;html=1;fontSize=12;fontStyle=0;aspect=fixed;shape=mxgraph.aws4.resourceIcon;resIcon=mxgraph.aws4.sqs;" vertex="1" parent="C56o7w2l9w4_Cjoz_A8b-1">
          <mxGeometry x="785" y="389" width="50" height="50" as="geometry" />
        </mxCell>
        <mxCell id="AtHkYgv6ObbaxClxxJdl-2" value="Queue" style="sketch=0;points=[[0,0,0],[0.25,0,0],[0.5,0,0],[0.75,0,0],[1,0,0],[0,1,0],[0.25,1,0],[0.5,1,0],[0.75,1,0],[1,1,0],[0,0.25,0],[0,0.5,0],[0,0.75,0],[1,0.25,0],[1,0.5,0],[1,0.75,0]];outlineConnect=0;fontColor=#232F3E;fillColor=#E7157B;strokeColor=#ffffff;dashed=0;verticalLabelPosition=bottom;verticalAlign=top;align=center;html=1;fontSize=12;fontStyle=0;aspect=fixed;shape=mxgraph.aws4.resourceIcon;resIcon=mxgraph.aws4.sqs;" vertex="1" parent="C56o7w2l9w4_Cjoz_A8b-1">
          <mxGeometry x="785" y="509" width="50" height="50" as="geometry" />
        </mxCell>
      </root>
    </mxGraphModel>
  </diagram>
  <diagram name="Solution-4" id="EbtUj2KBgSdFxufgpO9o">
    <mxGraphModel dx="1306" dy="825" grid="1" gridSize="10" guides="1" tooltips="1" connect="1" arrows="1" fold="1" page="1" pageScale="1" pageWidth="1169" pageHeight="827" math="0" shadow="0">
      <root>
        <mxCell id="BrDobAsfprOvV_uKPl8t-0" />
        <mxCell id="BrDobAsfprOvV_uKPl8t-1" parent="BrDobAsfprOvV_uKPl8t-0" />
        <mxCell id="BrDobAsfprOvV_uKPl8t-2" value="Processor A" style="image;html=1;image=img/lib/clip_art/computers/Server_Tower_128x128.png" vertex="1" parent="BrDobAsfprOvV_uKPl8t-1">
          <mxGeometry x="880" y="254" width="80" height="80" as="geometry" />
        </mxCell>
        <mxCell id="BrDobAsfprOvV_uKPl8t-3" value="Processor B" style="image;html=1;image=img/lib/clip_art/computers/Server_Tower_128x128.png" vertex="1" parent="BrDobAsfprOvV_uKPl8t-1">
          <mxGeometry x="880" y="374" width="80" height="80" as="geometry" />
        </mxCell>
        <mxCell id="BrDobAsfprOvV_uKPl8t-4" value="Processor C" style="image;html=1;image=img/lib/clip_art/computers/Server_Tower_128x128.png" vertex="1" parent="BrDobAsfprOvV_uKPl8t-1">
          <mxGeometry x="880" y="494" width="80" height="80" as="geometry" />
        </mxCell>
        <mxCell id="BrDobAsfprOvV_uKPl8t-5" value="" style="endArrow=classic;html=1;rounded=0;movable=1;resizable=1;rotatable=1;deletable=1;editable=1;locked=0;connectable=1;entryX=0;entryY=0.5;entryDx=0;entryDy=0;entryPerimeter=0;flowAnimation=1;" edge="1" parent="BrDobAsfprOvV_uKPl8t-1">
          <mxGeometry width="50" height="50" relative="1" as="geometry">
            <mxPoint x="600" y="410" as="sourcePoint" />
            <mxPoint x="785" y="294" as="targetPoint" />
          </mxGeometry>
        </mxCell>
        <mxCell id="BrDobAsfprOvV_uKPl8t-6" value="" style="endArrow=classic;html=1;rounded=0;exitX=1;exitY=0.5;exitDx=0;exitDy=0;entryX=0;entryY=0.5;entryDx=0;entryDy=0;entryPerimeter=0;flowAnimation=1;" edge="1" parent="BrDobAsfprOvV_uKPl8t-1" source="BrDobAsfprOvV_uKPl8t-16">
          <mxGeometry width="50" height="50" relative="1" as="geometry">
            <mxPoint x="465" y="414" as="sourcePoint" />
            <mxPoint x="785" y="414" as="targetPoint" />
          </mxGeometry>
        </mxCell>
        <mxCell id="BrDobAsfprOvV_uKPl8t-7" value="" style="endArrow=classic;html=1;rounded=0;entryX=0;entryY=0.5;entryDx=0;entryDy=0;entryPerimeter=0;flowAnimation=1;" edge="1" parent="BrDobAsfprOvV_uKPl8t-1">
          <mxGeometry width="50" height="50" relative="1" as="geometry">
            <mxPoint x="600" y="420" as="sourcePoint" />
            <mxPoint x="785" y="534" as="targetPoint" />
          </mxGeometry>
        </mxCell>
        <mxCell id="BrDobAsfprOvV_uKPl8t-8" style="edgeStyle=orthogonalEdgeStyle;rounded=0;orthogonalLoop=1;jettySize=auto;html=1;entryX=0;entryY=0.5;entryDx=0;entryDy=0;flowAnimation=1;" edge="1" parent="BrDobAsfprOvV_uKPl8t-1" source="BrDobAsfprOvV_uKPl8t-13" target="BrDobAsfprOvV_uKPl8t-11">
          <mxGeometry relative="1" as="geometry" />
        </mxCell>
        <mxCell id="BrDobAsfprOvV_uKPl8t-9" value="Frontend" style="image;html=1;image=img/lib/clip_art/computers/iMac_128x128.png" vertex="1" parent="BrDobAsfprOvV_uKPl8t-1">
          <mxGeometry x="120" y="374" width="80" height="80" as="geometry" />
        </mxCell>
        <mxCell id="BrDobAsfprOvV_uKPl8t-10" value="" style="edgeStyle=orthogonalEdgeStyle;rounded=0;orthogonalLoop=1;jettySize=auto;html=1;flowAnimation=1;" edge="1" parent="BrDobAsfprOvV_uKPl8t-1" source="BrDobAsfprOvV_uKPl8t-11">
          <mxGeometry relative="1" as="geometry">
            <mxPoint x="550" y="414" as="targetPoint" />
          </mxGeometry>
        </mxCell>
        <mxCell id="BrDobAsfprOvV_uKPl8t-11" value="Backend Server" style="image;html=1;image=img/lib/clip_art/computers/Server_Tower_128x128.png" vertex="1" parent="BrDobAsfprOvV_uKPl8t-1">
          <mxGeometry x="400" y="374" width="80" height="80" as="geometry" />
        </mxCell>
        <mxCell id="BrDobAsfprOvV_uKPl8t-12" value="" style="edgeStyle=orthogonalEdgeStyle;rounded=0;orthogonalLoop=1;jettySize=auto;html=1;entryX=0;entryY=0.5;entryDx=0;entryDy=0;flowAnimation=1;" edge="1" parent="BrDobAsfprOvV_uKPl8t-1" source="BrDobAsfprOvV_uKPl8t-9" target="BrDobAsfprOvV_uKPl8t-13">
          <mxGeometry relative="1" as="geometry">
            <mxPoint x="200" y="414" as="sourcePoint" />
            <mxPoint x="390" y="414" as="targetPoint" />
          </mxGeometry>
        </mxCell>
        <mxCell id="BrDobAsfprOvV_uKPl8t-13" value="Message" style="shape=message;html=1;html=1;outlineConnect=0;labelPosition=center;verticalLabelPosition=bottom;align=center;verticalAlign=top;" vertex="1" parent="BrDobAsfprOvV_uKPl8t-1">
          <mxGeometry x="270" y="394" width="60" height="40" as="geometry" />
        </mxCell>
        <mxCell id="BrDobAsfprOvV_uKPl8t-14" value="" style="shape=message;html=1;html=1;outlineConnect=0;labelPosition=center;verticalLabelPosition=bottom;align=center;verticalAlign=top;" vertex="1" parent="BrDobAsfprOvV_uKPl8t-1">
          <mxGeometry x="665" y="324" width="60" height="40" as="geometry" />
        </mxCell>
        <mxCell id="BrDobAsfprOvV_uKPl8t-15" value="" style="endArrow=classic;html=1;rounded=0;entryX=0;entryY=0.5;entryDx=0;entryDy=0;flowAnimation=1;" edge="1" parent="BrDobAsfprOvV_uKPl8t-1" target="BrDobAsfprOvV_uKPl8t-16">
          <mxGeometry width="50" height="50" relative="1" as="geometry">
            <mxPoint x="600" y="414" as="sourcePoint" />
            <mxPoint x="775" y="414" as="targetPoint" />
          </mxGeometry>
        </mxCell>
        <mxCell id="BrDobAsfprOvV_uKPl8t-16" value="" style="shape=message;html=1;html=1;outlineConnect=0;labelPosition=center;verticalLabelPosition=bottom;align=center;verticalAlign=top;" vertex="1" parent="BrDobAsfprOvV_uKPl8t-1">
          <mxGeometry x="665" y="394" width="60" height="40" as="geometry" />
        </mxCell>
        <mxCell id="BrDobAsfprOvV_uKPl8t-17" value="" style="shape=message;html=1;html=1;outlineConnect=0;labelPosition=center;verticalLabelPosition=bottom;align=center;verticalAlign=top;" vertex="1" parent="BrDobAsfprOvV_uKPl8t-1">
          <mxGeometry x="666" y="462" width="60" height="40" as="geometry" />
        </mxCell>
        <mxCell id="BrDobAsfprOvV_uKPl8t-18" value="" style="edgeStyle=orthogonalEdgeStyle;rounded=0;orthogonalLoop=1;jettySize=auto;html=1;flowAnimation=1;" edge="1" parent="BrDobAsfprOvV_uKPl8t-1" target="BrDobAsfprOvV_uKPl8t-3">
          <mxGeometry relative="1" as="geometry">
            <mxPoint x="835" y="414" as="sourcePoint" />
          </mxGeometry>
        </mxCell>
        <mxCell id="BrDobAsfprOvV_uKPl8t-19" value="" style="edgeStyle=orthogonalEdgeStyle;rounded=0;orthogonalLoop=1;jettySize=auto;html=1;flowAnimation=1;" edge="1" parent="BrDobAsfprOvV_uKPl8t-1" target="BrDobAsfprOvV_uKPl8t-4">
          <mxGeometry relative="1" as="geometry">
            <mxPoint x="835" y="534" as="sourcePoint" />
          </mxGeometry>
        </mxCell>
        <mxCell id="BrDobAsfprOvV_uKPl8t-21" value="" style="edgeStyle=orthogonalEdgeStyle;rounded=0;orthogonalLoop=1;jettySize=auto;html=1;flowAnimation=1;" edge="1" parent="BrDobAsfprOvV_uKPl8t-1" source="BrDobAsfprOvV_uKPl8t-22" target="BrDobAsfprOvV_uKPl8t-2">
          <mxGeometry relative="1" as="geometry" />
        </mxCell>
        <mxCell id="BrDobAsfprOvV_uKPl8t-22" value="Queue" style="sketch=0;points=[[0,0,0],[0.25,0,0],[0.5,0,0],[0.75,0,0],[1,0,0],[0,1,0],[0.25,1,0],[0.5,1,0],[0.75,1,0],[1,1,0],[0,0.25,0],[0,0.5,0],[0,0.75,0],[1,0.25,0],[1,0.5,0],[1,0.75,0]];outlineConnect=0;fontColor=#232F3E;fillColor=#E7157B;strokeColor=#ffffff;dashed=0;verticalLabelPosition=bottom;verticalAlign=top;align=center;html=1;fontSize=12;fontStyle=0;aspect=fixed;shape=mxgraph.aws4.resourceIcon;resIcon=mxgraph.aws4.sqs;" vertex="1" parent="BrDobAsfprOvV_uKPl8t-1">
          <mxGeometry x="785" y="269" width="50" height="50" as="geometry" />
        </mxCell>
        <mxCell id="BrDobAsfprOvV_uKPl8t-23" value="Queue" style="sketch=0;points=[[0,0,0],[0.25,0,0],[0.5,0,0],[0.75,0,0],[1,0,0],[0,1,0],[0.25,1,0],[0.5,1,0],[0.75,1,0],[1,1,0],[0,0.25,0],[0,0.5,0],[0,0.75,0],[1,0.25,0],[1,0.5,0],[1,0.75,0]];outlineConnect=0;fontColor=#232F3E;fillColor=#E7157B;strokeColor=#ffffff;dashed=0;verticalLabelPosition=bottom;verticalAlign=top;align=center;html=1;fontSize=12;fontStyle=0;aspect=fixed;shape=mxgraph.aws4.resourceIcon;resIcon=mxgraph.aws4.sqs;" vertex="1" parent="BrDobAsfprOvV_uKPl8t-1">
          <mxGeometry x="785" y="389" width="50" height="50" as="geometry" />
        </mxCell>
        <mxCell id="BrDobAsfprOvV_uKPl8t-24" value="Queue" style="sketch=0;points=[[0,0,0],[0.25,0,0],[0.5,0,0],[0.75,0,0],[1,0,0],[0,1,0],[0.25,1,0],[0.5,1,0],[0.75,1,0],[1,1,0],[0,0.25,0],[0,0.5,0],[0,0.75,0],[1,0.25,0],[1,0.5,0],[1,0.75,0]];outlineConnect=0;fontColor=#232F3E;fillColor=#E7157B;strokeColor=#ffffff;dashed=0;verticalLabelPosition=bottom;verticalAlign=top;align=center;html=1;fontSize=12;fontStyle=0;aspect=fixed;shape=mxgraph.aws4.resourceIcon;resIcon=mxgraph.aws4.sqs;" vertex="1" parent="BrDobAsfprOvV_uKPl8t-1">
          <mxGeometry x="785" y="509" width="50" height="50" as="geometry" />
        </mxCell>
        <mxCell id="hjOkTr2s8g8zSbJ8rA4T-0" value="EventBridge" style="sketch=0;points=[[0,0,0],[0.25,0,0],[0.5,0,0],[0.75,0,0],[1,0,0],[0,1,0],[0.25,1,0],[0.5,1,0],[0.75,1,0],[1,1,0],[0,0.25,0],[0,0.5,0],[0,0.75,0],[1,0.25,0],[1,0.5,0],[1,0.75,0]];outlineConnect=0;fontColor=#232F3E;fillColor=#E7157B;strokeColor=#ffffff;dashed=0;verticalLabelPosition=bottom;verticalAlign=top;align=center;html=1;fontSize=12;fontStyle=0;aspect=fixed;shape=mxgraph.aws4.resourceIcon;resIcon=mxgraph.aws4.eventbridge;" vertex="1" parent="BrDobAsfprOvV_uKPl8t-1">
          <mxGeometry x="550" y="389" width="50" height="50" as="geometry" />
        </mxCell>
      </root>
    </mxGraphModel>
  </diagram>
</mxfile>
